<?xml version="1.0" standalone="no"?>
<!DOCTYPE svg PUBLIC "-//W3C//DTD SVG 1.1//EN" "http://www.w3.org/Graphics/SVG/1.1/DTD/svg11.dtd" >
<svg xmlns="http://www.w3.org/2000/svg">
<metadata>
This is a custom SVG webfont generated by Font Squirrel.
Copyright   :  1993 Jeroen Klaver 2000 Shamrock Int
</metadata>
<defs>
<font id="webfontbvNCnwqo" horiz-adv-x="1384" >
<font-face units-per-em="2048" ascent="1638" descent="-410" />
<missing-glyph horiz-adv-x="454" />
<glyph unicode=" "  horiz-adv-x="454" />
<glyph unicode="&#x09;" horiz-adv-x="454" />
<glyph unicode="&#xa0;" horiz-adv-x="454" />
<glyph unicode="!" horiz-adv-x="741" d="M244 119q0 57 39 96t96 39t97 -39t40 -96t-40 -97t-97 -40t-96 40t-39 97zM244 1348q0 57 39 96t96 39t97 -39t40 -96q0 -70 -92 -883h-88q-92 813 -92 883z" />
<glyph unicode="&#x22;" horiz-adv-x="894" d="M238 1128v402h145v-152l-45 -250h-100zM537 1128v402h145v-152l-45 -250h-100z" />
<glyph unicode="$" horiz-adv-x="1167" d="M172 1073q0 365 373 400v102h108v-100q221 -12 330 -109v-182h-137v90q-16 23 -43 39q-59 43 -150 51v-490q199 -84 267 -141q129 -109 129 -297q0 -211 -125 -332q-104 -100 -271 -118v-105h-108v103q-225 12 -369 118v217h137v-120q31 -23 66 -39q82 -41 166 -49v501 q-180 74 -252 144q-121 114 -121 317zM389 1147q0 -139 156 -221v432q-156 -39 -156 -211zM653 119q74 23 120 84t46 143q0 139 -166 219v-446z" />
<glyph unicode="%" horiz-adv-x="1705" d="M188 1133q0 135 60 223q80 119 252 119q170 0 250 -119q59 -88 59 -223q0 -147 -45 -224q-72 -117 -264 -116q-195 0 -267 116q-45 77 -45 224zM352 1133q0 -113 19 -160q31 -80 129 -80q96 0 127 80q18 47 18 160t-18 159q-31 82 -127 82t-129 -82q-19 -46 -19 -159z M436 8l692 1485l101 -45l-694 -1485zM854 324q0 135 59 223q80 117 250 117q172 0 252 -117q59 -88 60 -223q0 -150 -45 -224q-72 -119 -267 -118q-193 0 -264 118q-45 74 -45 224zM1018 324q0 -113 18 -160q31 -82 127 -82t129 82q18 47 19 160q0 113 -19 159 q-33 82 -129 82t-127 -82q-18 -46 -18 -159z" />
<glyph unicode="'" horiz-adv-x="583" d="M238 1128v402h145v-152l-45 -250h-100z" />
<glyph unicode="(" horiz-adv-x="774" d="M195 547q0 395 110 651q119 276 322 277v-109q-190 0 -191 -819q0 -819 191 -819v-111q-203 0 -322 277q-110 258 -110 653z" />
<glyph unicode=")" horiz-adv-x="774" d="M147 -272q193 0 193 819t-193 819v109q203 0 324 -277q111 -258 111 -651q0 -395 -111 -653q-121 -276 -324 -277v111z" />
<glyph unicode="*" horiz-adv-x="1036" d="M188 1352l230 -6l-117 196l96 55l111 -200l113 200l96 -55l-119 -196l229 4v-113l-229 4l119 -199l-94 -53l-115 203l-111 -201l-94 56l115 194l-228 -4z" />
<glyph unicode="+" horiz-adv-x="954" d="M139 655v109h283v283h110v-283h281v-109h-281v-282h-110v282h-283z" />
<glyph unicode="," horiz-adv-x="681" d="M197 119q0 57 38.5 96t96.5 39q70 0 112 -45q47 -51 48 -141q0 -215 -213 -324l-50 74q150 92 150 200q-25 -37 -68 -36q-53 0 -83.5 39t-30.5 98z" />
<glyph unicode="-" horiz-adv-x="788" d="M195 473v145h401v-145h-401z" />
<glyph unicode="." horiz-adv-x="675" d="M211 119q0 57 40 96t97 39t96 -39t39 -96t-38.5 -97t-96.5 -40q-57 0 -97 40t-40 97z" />
<glyph unicode="/" horiz-adv-x="782" d="M84 -354l530 1845l105 -31l-531 -1845z" />
<glyph unicode="0" horiz-adv-x="1363" d="M147 729q0 406 134 582q125 164 397 164t397 -164q131 -176 131 -582q0 -408 -131 -582q-125 -166 -397 -165q-272 0 -397 165q-134 176 -134 582zM399 729q0 -344 60 -487q61 -152 219 -152q156 0 219 152q59 143 59 487q0 342 -59 485q-63 152 -219 152 q-158 0 -219 -152q-60 -143 -60 -485z" />
<glyph unicode="1" horiz-adv-x="839" d="M133 0v109h174v1239h-174v108h416v-1347h164v-109h-580z" />
<glyph unicode="2" horiz-adv-x="1183" d="M123 0v119q399 471 487 596q145 209 146 368q0 283 -209 283q-160 0 -236 -109v-118h-137v215q119 121 410 121q229 0 342 -113q82 -84 82 -199q0 -236 -170 -436l-486 -518h518v110h138v-319h-885z" />
<glyph unicode="3" horiz-adv-x="1200" d="M129 102v217h135v-120q113 -109 275 -109q113 0 180 90q66 84 65 211q0 127 -70.5 214t-185.5 87h-114v109h125q209 0 209 282q0 283 -209 283q-162 0 -238 -109v-118h-137v215q117 121 375 121q233 0 345.5 -92.5t112.5 -299.5q0 -262 -204 -338q242 -49 241 -354 q0 -195 -136 -302t-359 -107q-258 -1 -410 120z" />
<glyph unicode="4" horiz-adv-x="1292" d="M49 401v109l731 965h109v-965h274v-109h-274v-292h137v-109h-514v109h135v292h-598zM188 510h459v606z" />
<glyph unicode="5" horiz-adv-x="1253" d="M186 102v217h136v-120q113 -109 264 -109q119 0 190 90q66 82 66 211q0 147 -76 237.5t-217 90.5h-303v737h753v-317h-135v108h-483v-391h168q543 0 543 -414q0 -229 -140 -348q-129 -113 -356 -112q-258 -1 -410 120z" />
<glyph unicode="6" horiz-adv-x="1312" d="M139 729q0 408 148 586q131 160 411 160q225 0 394 -99v-237h-136v133q-106 94 -276 94q-156 0 -221.5 -133t-69.5 -445q96 121 273 121q502 0 501 -463q0 -225 -131 -344.5t-370 -119.5q-254 0 -381 159q-142 182 -142 588zM399 446q18 -190 79 -273t184 -83 q150 0 206 111q43 80 43 245q0 166 -43 246q-57 109 -206 109q-263 -1 -263 -355z" />
<glyph unicode="7" horiz-adv-x="1087" d="M129 1139v317h879v-108l-615 -1385l-125 55l533 1229h-537v-108h-135z" />
<glyph unicode="8" horiz-adv-x="1228" d="M133 377q0 197 244 358q-195 141 -195 398q0 123 84 215q115 127 350 127q223 0 326 -109q80 -84 80 -219q0 -172 -221 -328q145 -76 213 -153q94 -104 94 -248q0 -170 -100 -285q-129 -152 -396 -151q-479 0 -479 395zM289 369q0 -92 47 -160q72 -100 235 -100 q305 0 306 229q0 113 -111 190q-25 16 -244 123q-233 -145 -233 -282zM412 1165q0 -88 71 -157q51 -49 168 -113q215 131 215 254q0 217 -223 217q-231 0 -231 -201z" />
<glyph unicode="9" horiz-adv-x="1312" d="M137 1010q0 225 131 345t371 120q254 0 381 -160q141 -180 141 -586q0 -410 -147 -588q-131 -160 -412 -159q-225 0 -395 98v239h137v-135q106 -94 277 -94q154 0 219 133t71 445q-100 -121 -272 -121q-502 0 -502 463zM387 1010q0 -164 43 -246q59 -109 209 -109 q258 0 262 355q-20 190 -79.5 273t-182.5 83q-150 0 -209 -111q-43 -79 -43 -245z" />
<glyph unicode=":" horiz-adv-x="673" d="M205 119q0 57 39 96t96 39t97 -39t40 -96t-40 -97t-97 -40t-96 40t-39 97zM205 975q0 55 39 95t96 40t97 -40t40 -95q0 -57 -40 -97t-97 -40t-96 40t-39 97z" />
<glyph unicode=";" horiz-adv-x="673" d="M197 119q0 57 38.5 96t96.5 39q70 0 112 -45q47 -51 48 -141q0 -215 -213 -324l-50 74q150 92 150 200q-25 -37 -68 -36q-53 0 -83.5 39t-30.5 98zM197 975q0 55 39.5 95t97.5 40q57 0 97 -40t40 -95q0 -57 -40 -97t-97 -40t-97 40t-40 97z" />
<glyph unicode="&#x3c;" horiz-adv-x="954" d="M266 295l226 254l-226 256l86 72l262 -328l-262 -326z" />
<glyph unicode="=" horiz-adv-x="1044" d="M178 483v109h674v-109h-674zM178 827v111h674v-111h-674z" />
<glyph unicode="?" horiz-adv-x="1062" d="M164 1184h137v135q47 37 174 37v119q-213 0 -311 -107v-184zM297 119q0 57 40 96t97 39q55 0 95 -39t40 -96t-40 -97t-95 -40q-57 0 -97 40t-40 97zM365 473v219h133q186 0 186 328q0 193 -39 262q-45 74 -170 74v119q242 0 339 -99.5t97 -355.5q0 -219 -137 -338 q-113 -100 -272 -100v-109h-137z" />
<glyph unicode="A" d="M59 0v109h138l356 1239h-135v108h368l388 -1347h137v-109h-525v109h136l-95 327h-411l-92 -327h135v-109h-400zM446 547h351l-176 620z" />
<glyph unicode="B" horiz-adv-x="1259" d="M137 0v109h135v1239h-135v108h551q209 0 307 -84q106 -90 107 -289q0 -270 -223 -338q80 -12 139 -51q137 -92 137 -303q0 -186 -136 -288.5t-360 -102.5h-522zM514 109h145q113 0 183 84q63 78 63 198q0 125 -74.5 213t-189.5 88h-127v-583zM514 801h137q201 0 201 282 q0 264 -201 265h-137v-547z" />
<glyph unicode="C" horiz-adv-x="1261" d="M123 729q0 403 156 586q139 160 413 160q256 0 422 -121v-215h-137v118q-125 109 -285 109q-170 0 -244.5 -148.5t-74.5 -488.5q0 -342 74.5 -490.5t244.5 -148.5q160 0 285 109v120h137v-217q-166 -121 -422 -120q-274 0 -413 159q-156 182 -156 588z" />
<glyph unicode="D" d="M137 0v109h135v1239h-135v108h559q276 0 414 -151q156 -174 156 -576q0 -403 -156 -577q-135 -152 -414 -152h-559zM514 109h182q172 0 246 140t74 480q0 338 -74 478.5t-246 140.5h-182v-1239z" />
<glyph unicode="E" horiz-adv-x="1163" d="M137 0v109h135v1239h-135v108h846v-272h-137v164h-332v-547h256v108h135v-327h-135v110h-256v-583h342v163h135v-272h-854z" />
<glyph unicode="F" horiz-adv-x="1089" d="M137 0v109h135v1239h-135v108h869v-272h-138v164h-354v-547h256v108h135v-327h-135v110h-256v-583h182v-109h-559z" />
<glyph unicode="G" horiz-adv-x="1320" d="M123 729q0 403 156 586q139 160 413 160q256 0 422 -121v-215h-137v118q-125 109 -285 109q-170 0 -244.5 -148.5t-74.5 -488.5q0 -342 74.5 -490.5t244.5 -148.5q145 0 226 82v420h-138v108h379v-598q-211 -121 -467 -120q-274 0 -413 159q-156 182 -156 588z" />
<glyph unicode="H" horiz-adv-x="1597" d="M137 0v109h135v1239h-135v108h514v-108h-137v-547h569v547h-137v108h514v-108h-135v-1239h135v-109h-514v109h137v583h-569v-583h137v-109h-514z" />
<glyph unicode="I" horiz-adv-x="815" d="M150 0v109h137v1239h-137v108h514v-108h-136v-1239h136v-109h-514z" />
<glyph unicode="J" horiz-adv-x="815" d="M96 -272q190 0 191 381v1239h-137v108h514v-108h-136v-1239q0 -203 -110 -342q-121 -150 -322 -150v111z" />
<glyph unicode="K" horiz-adv-x="1423" d="M137 0v109h135v1239h-135v108h514v-108h-137v-603l514 603h-135v108h418v-108h-140l-395 -463l447 -776h137v-109h-352l-398 688l-96 -110v-469h137v-109h-514z" />
<glyph unicode="L" horiz-adv-x="1064" d="M137 0v109h135v1239h-135v108h582v-108h-205v-1239h342v163h135v-272h-854z" />
<glyph unicode="M" horiz-adv-x="1837" d="M137 -2v108h135v1242h-135v108h443l340 -1165l333 1165h447v-108h-135v-1239h135v-109h-512v109h135v1167l-371 -1276h-200l-369 1284v-1178h135v-108h-381z" />
<glyph unicode="N" horiz-adv-x="1443" d="M137 0v109h135v1239h-135v108h389l570 -1167v1059h-138v108h383v-108h-137v-1348h-235l-586 1204v-1095h135v-109h-381z" />
<glyph unicode="O" d="M123 729q0 403 156 586q139 160 413 160t412 -160q158 -182 158 -586q0 -406 -158 -588q-137 -160 -412 -159q-274 0 -413 159q-156 182 -156 588zM373 729q0 -342 74.5 -490.5t244.5 -148.5t244 148.5t74 490.5t-74 489.5t-244 147.5t-244.5 -148.5t-74.5 -488.5z" />
<glyph unicode="P" horiz-adv-x="1212" d="M137 0v109h135v1239h-135v108h514q246 0 352.5 -85t106.5 -288q0 -213 -128 -302t-431 -89h-37v-583h219v-109h-596zM514 801h45q168 0 240 76q61 66 61 206q0 264 -209 265h-137v-547z" />
<glyph unicode="Q" d="M123 729q0 403 156 586q139 160 413 160t412 -160q158 -182 158 -586q0 -664 -439 -737q25 -264 187 -264v-111q-170 0 -287 109q-109 102 -141 264q-459 61 -459 739zM373 729q0 -342 74.5 -490.5t244.5 -148.5t244 148.5t74 490.5t-74 489.5t-244 147.5t-244.5 -148.5 t-74.5 -488.5z" />
<glyph unicode="R" d="M137 0v109h135v1239h-135v108h514q246 0 352.5 -85t106.5 -288q0 -137 -86 -237q-78 -94 -186 -117q141 -55 223 -291l115 -329h135v-109h-371l-129 442q-23 76 -63 136q-76 115 -187 114h-47v-583h219v-109h-596zM514 801h45q168 0 240 76q61 66 61 206q0 264 -209 265 h-137v-547z" />
<glyph unicode="S" horiz-adv-x="1099" d="M119 102v217h137v-120q123 -90 268 -90q100 0 165 67.5t65 169.5q0 131 -164 211q-287 141 -303 154q-164 125 -164 362q0 186 102 291q111 111 328 111q281 0 373 -109v-182h-138v90q-72 92 -237 92q-92 0 -148 -55q-61 -59 -61 -164q0 -139 166 -227l309 -154 q166 -117 166 -330q0 -231 -145 -352q-121 -102 -301 -102q-252 -1 -418 120z" />
<glyph unicode="T" horiz-adv-x="1288" d="M63 1184v272h1180v-272h-137v164h-332v-1239h205v-109h-651v109h204v1239l-331 -5v-159h-138z" />
<glyph unicode="U" horiz-adv-x="1437" d="M106 1348v108h515v-108h-138v-893q0 -365 320 -365q319 0 319 365v893h-137v108h383v-108h-137v-893q0 -473 -494 -473t-493 473v893h-138z" />
<glyph unicode="V" horiz-adv-x="1343" d="M45 1348v108h526v-108h-137l303 -1057l295 1057h-135v108h399v-108h-135l-391 -1348h-201l-387 1348h-137z" />
<glyph unicode="W" horiz-adv-x="2113" d="M45 1348v108h526v-108h-137l303 -1057l295 1057h-135v108h446v-108h-137l303 -1057l295 1057h-135v108h399v-108h-135l-391 -1348h-201l-282 1008l-289 -1008h-201l-387 1348h-137zM1206 1348l303 -1057z" />
<glyph unicode="X" horiz-adv-x="1388" d="M119 1348v108h532v-108h-110l188 -387l189 387h-109v108h455v-108h-224l-249 -512l356 -727h127v-109h-535v109h138l-246 505l-246 -505h135v-109h-393v109h135l307 628l-297 611h-153z" />
<glyph unicode="Y" horiz-adv-x="1323" d="M102 1348v108h535v-108h-137l245 -504l246 504h-135v108h393v-108h-135l-319 -652v-587h139v-109h-508v109h127v577l-324 662h-127z" />
<glyph unicode="Z" horiz-adv-x="1155" d="M129 0v109l576 1239h-394v-164h-137v272h803v-108l-580 -1239h463v163h135v-272h-866z" />
<glyph unicode="[" horiz-adv-x="684" d="M190 -485v2064h365v-109h-256v-1847h256v-108h-365z" />
<glyph unicode="\" horiz-adv-x="800" d="M84 1460l104 31l531 -1845l-105 -31z" />
<glyph unicode="]" horiz-adv-x="684" d="M113 -377h256v1847h-256v109h364v-2064h-364v108z" />
<glyph unicode="^" horiz-adv-x="819" d="M74 1303l327 262l326 -262l-72 -84l-254 223l-256 -223z" />
<glyph unicode="_" horiz-adv-x="978" d="M70 -455h819v-145h-819v145z" />
<glyph unicode="`" horiz-adv-x="729" d="M117 1442l76 129l415 -262l-55 -97z" />
<glyph unicode="a" horiz-adv-x="1142" d="M139 328q0 190 101 272q88 74 282 74q74 0 164 -33v205q0 145 -164 145q-127 0 -182 -45v-108h-135v163q115 109 327 109q156 0 236 -47q127 -76 127 -277v-677h137v-109h-336v164q-166 -182 -293 -182q-264 0 -264 346zM369 328q0 -190 114 -191q74 0 203 127v291 q-104 10 -145 10q-82 0 -119 -41q-53 -53 -53 -196z" />
<glyph unicode="b" horiz-adv-x="1189" d="M137 1348v108h346v-477q117 131 281 131q168 0 242 -192q51 -137 51 -345q0 -258 -64 -387q-98 -205 -364 -204q-162 0 -357 92v1274h-135zM483 137q61 -47 154 -47q201 0 201 457q0 414 -146 414q-106 0 -209 -68v-756z" />
<glyph unicode="c" horiz-adv-x="991" d="M131 547q0 281 96 418q102 145 328 145q211 0 297 -104v-168h-137v118q-33 35 -160 35q-119 0 -162 -129q-33 -96 -33 -315q0 -442 191 -443q104 0 283 82l30 -104q-160 -96 -358 -96q-375 0 -375 561z" />
<glyph unicode="d" horiz-adv-x="1189" d="M145 518q0 258 64 389q98 203 364 203q45 0 146 -27v265h-137v108h346v-1347h137v-109h-328v115q-127 -133 -301 -133q-291 -1 -291 536zM362 547q0 -416 146 -416q106 0 211 70v755q-61 45 -156 45q-201 1 -201 -454z" />
<glyph unicode="e" horiz-adv-x="1069" d="M139 547q0 283 90 418q98 145 316 145q256 0 334 -152q57 -115 57 -466h-567q0 -164 51 -269q57 -123 166 -123q154 0 309 72l33 -98q-203 -92 -387 -92q-402 0 -402 565zM369 600h354q0 223 -21 291q-35 111 -157 110q-117 0 -156 -145q-20 -78 -20 -256z" />
<glyph unicode="f" horiz-adv-x="901" d="M137 0v109h135v866h-135v117h135q0 164 47 241q82 141 322 142q47 0 133 -15v-223h-137v123q-25 6 -53 6q-74 0 -92 -82q-8 -37 -9 -192h199v-117h-199v-866h199v-109h-545z" />
<glyph unicode="g" horiz-adv-x="1157" d="M135 -74h135v-104q106 -86 256 -86q160 0 230 69q43 43 43 95q0 100 -103 100h-295q-219 0 -219 137q0 150 176 252q-201 88 -200 344q0 145 73 244q100 133 314 133q207 0 303 -125q66 139 176 139q39 0 49 -10v-158q-35 8 -72 9q-66 0 -114 -45q37 -80 37 -187 q0 -150 -68 -246q-92 -133 -299 -133q-104 0 -156 -49q-37 -35 -36 -72q0 -29 8 -38q18 -16 80 -17h284q256 0 256 -229q0 -96 -67 -182q-119 -150 -391 -150q-244 0 -400 119v190zM373 733q0 -274 172 -274q106 0 143 100q20 57 21 174q0 115 -21 172q-37 100 -143 101 q-172 -1 -172 -273z" />
<glyph unicode="h" horiz-adv-x="1318" d="M137 1348v108h346v-510q137 164 303 164q141 0 199 -66q61 -74 62 -270v-665h137v-109h-346v801q0 106 -37 141q-27 23 -105 23q-119 0 -213 -91v-765h109v-109h-428v109h108v1239h-135z" />
<glyph unicode="i" horiz-adv-x="784" d="M156 0v109h135v874h-135v109h344v-983h137v-109h-481zM258 1411q0 57 40 97t97 40t97 -40t40 -97t-39.5 -96t-97.5 -39q-57 0 -97 39t-40 96z" />
<glyph unicode="j" horiz-adv-x="749" d="M90 -272q135 0 180 149q20 74 21 232v874h-135v109h344v-983q0 -266 -98.5 -379t-311.5 -113v111zM258 1411q0 57 40 97t97 40t97 -40t40 -97t-39.5 -96t-97.5 -39q-57 0 -97 39t-40 96z" />
<glyph unicode="k" horiz-adv-x="1243" d="M137 0v109h135v1239h-135v108h346v-799l324 326h-96v109h354v-109h-102l-273 -270l348 -604h109v-109h-287l-323 557l-54 -53v-395h109v-109h-455z" />
<glyph unicode="l" horiz-adv-x="794" d="M156 0v109h135v1239h-135v108h344v-1347h137v-109h-481z" />
<glyph unicode="m" horiz-adv-x="1871" d="M137 983v109h328v-146q156 164 321 164q106 0 160 -33q61 -35 84 -127q145 160 320 160q141 0 198 -66q61 -74 62 -270v-665h135v-109h-344v801q0 106 -37 141q-27 23 -104 23q-127 0 -218 -91q0 -14 2.5 -47.5t2.5 -52.5v-665h137v-109h-441v109h95v692q0 106 -37 141 q-27 23 -105 23q-119 0 -213 -91v-765h90v-109h-409v109h108v874h-135z" />
<glyph unicode="n" horiz-adv-x="1318" d="M137 983v109h328v-146q156 164 321 164q141 0 199 -66q61 -74 62 -270v-665h137v-109h-346v801q0 106 -37 141q-27 23 -105 23q-119 0 -213 -91v-765h109v-109h-428v109h108v874h-135z" />
<glyph unicode="o" horiz-adv-x="1146" d="M127 541q0 569 446 569t447 -569q0 -567 -447 -568q-446 1 -446 568zM354 541q0 -227 41 -332q51 -127 178 -127t179 127q41 104 41 332q0 229 -41 333q-51 127 -179 127q-127 0 -178 -127q-41 -104 -41 -333z" />
<glyph unicode="p" horiz-adv-x="1179" d="M137 -254h135v1237h-135v109h328v-113q127 131 299 131q293 0 293 -537q0 -258 -64 -387q-98 -205 -364 -204q-45 0 -146 26v-262h135v-111h-481v111zM483 137q61 -47 154 -47q201 0 201 457q0 414 -146 414q-106 0 -209 -68v-756z" />
<glyph unicode="q" horiz-adv-x="1183" d="M137 518q0 258 64 389q98 203 364 203q45 0 236 -18h256v-109h-137v-1237h137v-111h-484v111h138v369q-109 -133 -283 -133q-291 -1 -291 536zM354 547q0 -416 146 -416q106 0 211 70v755q-61 45 -156 45q-201 1 -201 -454z" />
<glyph unicode="r" horiz-adv-x="913" d="M137 0v109h135v874h-135v109h336v-142q106 160 264 161q9 0 19 -1l71 -4v-268h-127v118l-26 2q-9 1 -18 1q-99 0 -173 -85v-765h199v-109h-545z" />
<glyph unicode="s" horiz-adv-x="954" d="M137 68v204h135v-116q82 -55 201 -56q86 0 131 58q33 43 33 92q0 104 -129 164q-231 104 -242 110q-129 92 -129 281q0 117 74 201q92 104 262 104q176 0 309 -78v-194h-135v118q-82 35 -174 35q-78 0 -119 -51q-35 -41 -35 -98q0 -82 134 -140q211 -90 247 -116 q133 -98 134 -281q0 -145 -102.5 -234t-248.5 -89q-213 0 -346 86z" />
<glyph unicode="t" horiz-adv-x="788" d="M115 983v109h135v227l209 92v-319h211v-109h-211v-711q0 -88 24 -125q33 -51 119 -51q16 0 57 4v-108q-61 -10 -102 -10q-176 0 -248 84q-59 68 -59 206v711h-135z" />
<glyph unicode="u" horiz-adv-x="1306" d="M127 983v109h346v-801q0 -106 37 -139q27 -25 104 -25q119 0 213 92v764h-108v109h319v-983h136v-109h-328v145q-156 -164 -322 -163q-141 0 -196 65q-63 74 -64 272v664h-137z" />
<glyph unicode="v" horiz-adv-x="1064" d="M45 983v109h418v-109h-94l211 -799l213 799h-97v109h324v-109h-111l-282 -983h-195l-285 983h-102z" />
<glyph unicode="w" horiz-adv-x="1638" d="M45 983v109h416v-109h-94l178 -799l215 799h-92v109h397v-109h-94l209 -799l186 799h-96v109h323v-109h-108l-248 -983h-201l-221 762l-219 -762h-203l-239 983h-109z" />
<glyph unicode="x" horiz-adv-x="1220" d="M137 983v109h428v-109h-82l156 -281l162 281h-72v109h344v-109h-147l-213 -367l295 -507h112v-109h-442v109h86l-191 331l-188 -331h80v-109h-320v109h115l242 417l-262 457h-103z" />
<glyph unicode="y" horiz-adv-x="1103" d="M68 983v109h399v-109h-82l221 -774l223 774h-112v109h319v-109h-92l-282 -997q-63 -223 -136 -301q-61 -68 -174 -68q-59 0 -96 6v105q15 -2 30 -2q81 0 128 59q45 55 45 145q0 37 -8 70l-283 983h-100z" />
<glyph unicode="z" horiz-adv-x="985" d="M90 0v109l506 874h-332v-145h-127v254h701v-109l-504 -874h385v163h137v-272h-766z" />
<glyph unicode="{" horiz-adv-x="774" d="M195 547q0 395 110 651q119 276 322 277v-109q-190 0 -191 -819q0 -819 191 -819v-111q-203 0 -322 277q-110 258 -110 653z" />
<glyph unicode="|" horiz-adv-x="673" d="M297 -391v1874h111v-1874h-111z" />
<glyph unicode="}" horiz-adv-x="774" d="M147 -272q193 0 193 819t-193 819v109q203 0 324 -277q111 -258 111 -651q0 -395 -111 -653q-121 -276 -324 -277v111z" />
<glyph unicode="~" horiz-adv-x="909" d="M109 1309q43 166 219 166q63 0 154 -63.5t155 -63.5q86 0 100 86l74 -19q-43 -166 -219 -166q-63 0 -154.5 63.5t-154.5 63.5q-86 0 -101 -86z" />
<glyph unicode="&#xa1;" horiz-adv-x="741" d="M244 119q0 70 92 882h86q94 -813 94 -882q0 -57 -40 -97t-97 -40t-96 40t-39 97zM244 1348q0 57 39 96t96 39t97 -39t40 -96t-40 -97.5t-97 -40.5t-96 40.5t-39 97.5z" />
<glyph unicode="&#xa8;" horiz-adv-x="1130" d="M135 1411q0 57 40 97t95 40q57 0 97.5 -40t40.5 -97t-40 -96t-98 -39q-55 0 -95 39t-40 96zM694 1411q0 57 40 97t97 40t96.5 -40t39.5 -97t-39 -96t-97 -39q-57 0 -97 39t-40 96z" />
<glyph unicode="&#xa9;" horiz-adv-x="1157" d="M141 582q0 244 64 356q96 172 364 172q16 0 93 -9t145 -9h254v-109h-137v-909q0 -199 -105.5 -319t-255.5 -120q-211 0 -346 93v135h135v-64q76 -53 201 -53q176 0 176 291v205q-123 -133 -297 -133q-178 0 -246 161q-45 107 -45 312zM360 610q0 -180 27 -258 q33 -92 119 -92q106 0 209 68v628q-61 45 -156 45q-199 0 -199 -391z" />
<glyph unicode="&#xaa;" horiz-adv-x="1142" d="M139 328q0 190 101 272q88 74 282 74q74 0 164 -33v205q0 145 -164 145q-127 0 -182 -45v-108h-135v163q115 109 327 109q156 0 236 -47q127 -76 127 -277v-677h137v-109h-336v164q-166 -182 -293 -182q-264 0 -264 346zM369 328q0 -190 114 -191q74 0 203 127v291 q-104 10 -145 10q-82 0 -119 -41q-53 -53 -53 -196z" />
<glyph unicode="&#xad;" horiz-adv-x="856" d="M139 655v109h602v-109h-602z" />
<glyph unicode="&#x2212;" horiz-adv-x="856" d="M139 655v109h602v-109h-602z" />
<glyph unicode="&#xb0;" horiz-adv-x="636" d="M170 1376q0 72 51 122t121 50q72 0 122 -50t50 -122q0 -70 -50 -121t-122 -51q-70 0 -121 51t-51 121zM240 1376q0 -43 30.5 -72.5t71.5 -29.5q43 0 72.5 29.5t29.5 72.5t-29.5 73t-72.5 30q-41 0 -71.5 -30t-30.5 -73z" />
<glyph unicode="&#xb1;" horiz-adv-x="960" d="M139 0v109h674v-109h-674zM139 655v109h283v283h110v-283h281v-109h-281v-282h-110v282h-283z" />
<glyph unicode="&#xb2;" horiz-adv-x="1183" d="M123 0v119q399 471 487 596q145 209 146 368q0 283 -209 283q-160 0 -236 -109v-118h-137v215q119 121 410 121q229 0 342 -113q82 -84 82 -199q0 -236 -170 -436l-486 -518h518v110h138v-319h-885z" />
<glyph unicode="&#xb3;" horiz-adv-x="1200" d="M129 102v217h135v-120q113 -109 275 -109q113 0 180 90q66 84 65 211q0 127 -70.5 214t-185.5 87h-114v109h125q209 0 209 282q0 283 -209 283q-162 0 -238 -109v-118h-137v215q117 121 375 121q233 0 345.5 -92.5t112.5 -299.5q0 -262 -204 -338q242 -49 241 -354 q0 -195 -136 -302t-359 -107q-258 -1 -410 120z" />
<glyph unicode="&#xb4;" horiz-adv-x="729" d="M129 1309l416 262l76 -129l-437 -230z" />
<glyph unicode="&#xb9;" horiz-adv-x="839" d="M133 0v109h174v1239h-174v108h416v-1347h164v-109h-580z" />
<glyph unicode="&#xba;" horiz-adv-x="1146" d="M127 541q0 569 446 569t447 -569q0 -567 -447 -568q-446 1 -446 568zM354 541q0 -227 41 -332q51 -127 178 -127t179 127q41 104 41 332q0 229 -41 333q-51 127 -179 127q-127 0 -178 -127q-41 -104 -41 -333z" />
<glyph unicode="&#xbf;" horiz-adv-x="1091" d="M162 434q0 219 137 340q113 98 272 98v109h138v-219h-134q-186 0 -186 -328q0 -193 42 -264.5t167 -71.5q127 0 174 37v135h137v-184q-98 -106 -311 -106q-240 0 -338 99t-98 355zM504 1335q0 57 40 97.5t95 40.5q57 0 97 -40t40 -98q0 -55 -40 -95t-97 -40q-55 0 -95 40 t-40 95z" />
<glyph unicode="&#xc0;" d="M166 1827l76 129l415 -262l-55 -97zM59 0v109h138l356 1239h-135v108h368l388 -1347h137v-109h-525v109h136l-95 327h-411l-92 -327h135v-109h-400zM446 547h351l-176 620z" />
<glyph unicode="&#xc1;" d="M547 1694l416 262l76 -129l-437 -230zM59 0v109h138l356 1239h-135v108h368l388 -1347h137v-109h-525v109h136l-95 327h-411l-92 -327h135v-109h-400zM446 547h351l-176 620z" />
<glyph unicode="&#xc2;" d="M275 1682l327 262l326 -262l-72 -84l-254 223l-256 -223zM59 0v109h138l356 1239h-135v108h368l388 -1347h137v-109h-525v109h136l-95 327h-411l-92 -327h135v-109h-400zM446 547h351l-176 620z" />
<glyph unicode="&#xc3;" d="M252 1657q43 166 219 166q63 0 154 -63.5t155 -63.5q86 0 100 86l74 -19q-43 -166 -219 -166q-63 0 -154.5 63.5t-154.5 63.5q-86 0 -101 -86zM59 0v109h138l356 1239h-135v108h368l388 -1347h137v-109h-525v109h136l-95 327h-411l-92 -327h135v-109h-400zM446 547h351 l-176 620z" />
<glyph unicode="&#xc4;" d="M186 1733q0 57 40 97t95 40q57 0 97.5 -40t40.5 -97t-40 -96t-98 -39q-55 0 -95 39t-40 96zM745 1733q0 57 40 97t97 40t96.5 -40t39.5 -97t-39 -96t-97 -39q-57 0 -97 39t-40 96zM59 0v109h138l356 1239h-135v108h368l388 -1347h137v-109h-525v109h136l-95 327h-411 l-92 -327h135v-109h-400zM446 547h351l-176 620z" />
<glyph unicode="&#xc5;" d="M430 1634q0 72 51 122t121 50q72 0 122 -50t50 -122q0 -70 -50 -121t-122 -51q-70 0 -121 51t-51 121zM500 1634q0 -43 30.5 -72.5t71.5 -29.5q43 0 72.5 29.5t29.5 72.5t-29.5 73t-72.5 30q-41 0 -71.5 -30t-30.5 -73zM59 0v109h138l356 1239h-135v108h368l388 -1347 h137v-109h-525v109h136l-95 327h-411l-92 -327h135v-109h-400zM446 547h351l-176 620z" />
<glyph unicode="&#xc8;" horiz-adv-x="1163" d="M125 1827l76 129l415 -262l-55 -97zM137 0v109h135v1239h-135v108h846v-272h-137v164h-332v-547h256v108h135v-327h-135v110h-256v-583h342v163h135v-272h-854z" />
<glyph unicode="&#xc9;" horiz-adv-x="1163" d="M506 1694l416 262l76 -129l-437 -230zM137 0v109h135v1239h-135v108h846v-272h-137v164h-332v-547h256v108h135v-327h-135v110h-256v-583h342v163h135v-272h-854z" />
<glyph unicode="&#xca;" horiz-adv-x="1163" d="M234 1682l327 262l326 -262l-72 -84l-254 223l-256 -223zM137 0v109h135v1239h-135v108h846v-272h-137v164h-332v-547h256v108h135v-327h-135v110h-256v-583h342v163h135v-272h-854z" />
<glyph unicode="&#xcb;" horiz-adv-x="1163" d="M143 1733q0 57 40 97t95 40q57 0 97.5 -40t40.5 -97t-40 -96t-98 -39q-55 0 -95 39t-40 96zM702 1733q0 57 40 97t97 40t96.5 -40t39.5 -97t-39 -96t-97 -39q-57 0 -97 39t-40 96zM137 0v109h135v1239h-135v108h846v-272h-137v164h-332v-547h256v108h135v-327h-135v110 h-256v-583h342v163h135v-272h-854z" />
<glyph unicode="&#xcc;" horiz-adv-x="815" d="M-30 1827l76 129l415 -262l-55 -97zM150 0v109h137v1239h-137v108h514v-108h-136v-1239h136v-109h-514z" />
<glyph unicode="&#xcd;" horiz-adv-x="815" d="M350 1694l416 262l76 -129l-437 -230zM150 0v109h137v1239h-137v108h514v-108h-136v-1239h136v-109h-514z" />
<glyph unicode="&#xce;" horiz-adv-x="815" d="M80 1682l327 262l326 -262l-72 -84l-254 223l-256 -223zM150 0v109h137v1239h-137v108h514v-108h-136v-1239h136v-109h-514z" />
<glyph unicode="&#xcf;" horiz-adv-x="815" d="M-8 1733q0 57 40 97t95 40q57 0 97.5 -40t40.5 -97t-40 -96t-98 -39q-55 0 -95 39t-40 96zM551 1733q0 57 40 97t97 40t96.5 -40t39.5 -97t-39 -96t-97 -39q-57 0 -97 39t-40 96zM150 0v109h137v1239h-137v108h514v-108h-136v-1239h136v-109h-514z" />
<glyph unicode="&#xd1;" horiz-adv-x="1443" d="M388 1657q43 166 219 166q63 0 154 -63.5t155 -63.5q86 0 100 86l74 -19q-43 -166 -219 -166q-63 0 -154.5 63.5t-154.5 63.5q-86 0 -101 -86zM137 0v109h135v1239h-135v108h389l570 -1167v1059h-138v108h383v-108h-137v-1348h-235l-586 1204v-1095h135v-109h-381z" />
<glyph unicode="&#xd2;" d="M256 1827l76 129l415 -262l-55 -97zM123 729q0 403 156 586q139 160 413 160t412 -160q158 -182 158 -586q0 -406 -158 -588q-137 -160 -412 -159q-274 0 -413 159q-156 182 -156 588zM373 729q0 -342 74.5 -490.5t244.5 -148.5t244 148.5t74 490.5t-74 489.5t-244 147.5 t-244.5 -148.5t-74.5 -488.5z" />
<glyph unicode="&#xd3;" d="M637 1694l416 262l76 -129l-437 -230zM123 729q0 403 156 586q139 160 413 160t412 -160q158 -182 158 -586q0 -406 -158 -588q-137 -160 -412 -159q-274 0 -413 159q-156 182 -156 588zM373 729q0 -342 74.5 -490.5t244.5 -148.5t244 148.5t74 490.5t-74 489.5 t-244 147.5t-244.5 -148.5t-74.5 -488.5z" />
<glyph unicode="&#xd4;" d="M365 1682l327 262l326 -262l-72 -84l-254 223l-256 -223zM123 729q0 403 156 586q139 160 413 160t412 -160q158 -182 158 -586q0 -406 -158 -588q-137 -160 -412 -159q-274 0 -413 159q-156 182 -156 588zM373 729q0 -342 74.5 -490.5t244.5 -148.5t244 148.5t74 490.5 t-74 489.5t-244 147.5t-244.5 -148.5t-74.5 -488.5z" />
<glyph unicode="&#xd5;" d="M342 1657q43 166 219 166q63 0 154 -63.5t155 -63.5q86 0 100 86l74 -19q-43 -166 -219 -166q-63 0 -154.5 63.5t-154.5 63.5q-86 0 -101 -86zM123 729q0 403 156 586q139 160 413 160t412 -160q158 -182 158 -586q0 -406 -158 -588q-137 -160 -412 -159q-274 0 -413 159 q-156 182 -156 588zM373 729q0 -342 74.5 -490.5t244.5 -148.5t244 148.5t74 490.5t-74 489.5t-244 147.5t-244.5 -148.5t-74.5 -488.5z" />
<glyph unicode="&#xd6;" d="M276 1733q0 57 40 97t95 40q57 0 97.5 -40t40.5 -97t-40 -96t-98 -39q-55 0 -95 39t-40 96zM835 1733q0 57 40 97t97 40t96.5 -40t39.5 -97t-39 -96t-97 -39q-57 0 -97 39t-40 96zM123 729q0 403 156 586q139 160 413 160t412 -160q158 -182 158 -586q0 -406 -158 -588 q-137 -160 -412 -159q-274 0 -413 159q-156 182 -156 588zM373 729q0 -342 74.5 -490.5t244.5 -148.5t244 148.5t74 490.5t-74 489.5t-244 147.5t-244.5 -148.5t-74.5 -488.5z" />
<glyph unicode="&#xd7;" horiz-adv-x="954" d="M201 510l198 201l-198 198l78 78l198 -201l199 201l78 -78l-199 -198l199 -201l-78 -76l-199 199l-198 -199z" />
<glyph unicode="&#xd9;" horiz-adv-x="1437" d="M301 1827l76 129l415 -262l-55 -97zM106 1348v108h515v-108h-138v-893q0 -365 320 -365q319 0 319 365v893h-137v108h383v-108h-137v-893q0 -473 -494 -473t-493 473v893h-138z" />
<glyph unicode="&#xda;" horiz-adv-x="1437" d="M682 1694l416 262l76 -129l-437 -230zM106 1348v108h515v-108h-138v-893q0 -365 320 -365q319 0 319 365v893h-137v108h383v-108h-137v-893q0 -473 -494 -473t-493 473v893h-138z" />
<glyph unicode="&#xdb;" horiz-adv-x="1437" d="M410 1682l327 262l326 -262l-72 -84l-254 223l-256 -223zM106 1348v108h515v-108h-138v-893q0 -365 320 -365q319 0 319 365v893h-137v108h383v-108h-137v-893q0 -473 -494 -473t-493 473v893h-138z" />
<glyph unicode="&#xdc;" horiz-adv-x="1437" d="M321 1733q0 57 40 97t95 40q57 0 97.5 -40t40.5 -97t-40 -96t-98 -39q-55 0 -95 39t-40 96zM880 1733q0 57 40 97t97 40t96.5 -40t39.5 -97t-39 -96t-97 -39q-57 0 -97 39t-40 96zM106 1348v108h515v-108h-138v-893q0 -365 320 -365q319 0 319 365v893h-137v108h383v-108 h-137v-893q0 -473 -494 -473t-493 473v893h-138z" />
<glyph unicode="&#xdd;" horiz-adv-x="1323" d="M102 1348v108h535v-108h-137l245 -504l246 504h-135v108h393v-108h-135l-319 -652v-587h139v-109h-508v109h127v577l-324 662h-127z" />
<glyph unicode="&#xe0;" horiz-adv-x="1142" d="M139 328q0 190 101 272q88 74 282 74q74 0 164 -33v205q0 145 -164 145q-127 0 -182 -45v-108h-135v163q115 109 327 109q156 0 236 -47q127 -76 127 -277v-677h137v-109h-336v164q-166 -182 -293 -182q-264 0 -264 346zM246 1442l73 129l416 -262l-55 -97zM369 328 q0 -190 114 -191q74 0 203 127v291q-104 10 -145 10q-82 0 -119 -41q-53 -53 -53 -196z" />
<glyph unicode="&#xe1;" horiz-adv-x="1142" d="M139 328q0 190 101 272q88 74 282 74q74 0 164 -33v205q0 145 -164 145q-127 0 -182 -45v-108h-135v163q115 109 327 109q156 0 236 -47q127 -76 127 -277v-677h137v-109h-336v164q-166 -182 -293 -182q-264 0 -264 346zM369 328q0 -190 114 -191q74 0 203 127v291 q-104 10 -145 10q-82 0 -119 -41q-53 -53 -53 -196zM373 1309l415 262l76 -129l-436 -230z" />
<glyph unicode="&#xe2;" horiz-adv-x="1142" d="M139 328q0 190 101 272q88 74 282 74q74 0 164 -33v205q0 145 -164 145q-127 0 -182 -45v-108h-135v163q115 109 327 109q156 0 236 -47q127 -76 127 -277v-677h137v-109h-336v164q-166 -182 -293 -182q-264 0 -264 346zM229 1303l326 262l326 -262l-70 -84l-256 223 l-254 -223zM369 328q0 -190 114 -191q74 0 203 127v291q-104 10 -145 10q-82 0 -119 -41q-53 -53 -53 -196z" />
<glyph unicode="&#xe3;" horiz-adv-x="1142" d="M139 328q0 190 101 272q88 74 282 74q74 0 164 -33v205q0 145 -164 145q-127 0 -182 -45v-108h-135v163q115 109 327 109q156 0 236 -47q127 -76 127 -277v-677h137v-109h-336v164q-166 -182 -293 -182q-264 0 -264 346zM180 1415l74 19q14 -86 98 -86q66 0 157 63.5 t155 63.5q176 0 217 -166l-72 -19q-16 86 -100 86q-63 0 -154.5 -63.5t-155.5 -63.5q-178 0 -219 166zM369 328q0 -190 114 -191q74 0 203 127v291q-104 10 -145 10q-82 0 -119 -41q-53 -53 -53 -196z" />
<glyph unicode="&#xe4;" horiz-adv-x="1142" d="M139 328q0 190 101 272q88 74 282 74q74 0 164 -33v205q0 145 -164 145q-127 0 -182 -45v-108h-135v163q115 109 327 109q156 0 236 -47q127 -76 127 -277v-677h137v-109h-336v164q-166 -182 -293 -182q-264 0 -264 346zM172 1411q0 57 39 97t96 40t97 -40t40 -97 t-39.5 -96t-97.5 -39q-57 0 -96 39t-39 96zM369 328q0 -190 114 -191q74 0 203 127v291q-104 10 -145 10q-82 0 -119 -41q-53 -53 -53 -196zM655 1411q0 57 40 97t98 40q57 0 97 -40t40 -97t-40 -96t-97 -39t-97.5 39t-40.5 96z" />
<glyph unicode="&#xe5;" horiz-adv-x="1142" d="M139 328q0 190 101 272q88 74 282 74q74 0 164 -33v205q0 145 -164 145q-127 0 -182 -45v-108h-135v163q115 109 327 109q156 0 236 -47q127 -76 127 -277v-677h137v-109h-336v164q-166 -182 -293 -182q-264 0 -264 346zM356 1376q0 72 51.5 122t120.5 50q72 0 122 -50 t50 -122q0 -70 -50 -121t-122 -51q-70 0 -121 51t-51 121zM369 328q0 -190 114 -191q74 0 203 127v291q-104 10 -145 10q-82 0 -119 -41q-53 -53 -53 -196zM426 1376q0 -43 30.5 -72.5t71.5 -29.5q43 0 73 29.5t30 72.5t-30 73t-73 30q-41 0 -71.5 -30t-30.5 -73z" />
<glyph unicode="&#xe6;" horiz-adv-x="1046" d="M113 365q0 205 99 292.5t337 87.5q27 0 110 -18v119q-6 47 -43 90q-49 55 -120 55q-127 0 -183 -45v-108h-137v163q117 109 328 109q227 0 268 -100q27 43 98.5 71.5t149.5 28.5q197 0 287 -74.5t90 -255.5q0 -162 -103 -239q-82 -61 -209 -62q-102 0 -217 41v-28 q0 -162 50 -275q55 -127 151 -127q104 0 291 74l26 -90q-152 -92 -362 -92q-207 0 -319 188q-47 -68 -127 -121q-100 -68 -201 -67q-137 0 -200.5 89t-63.5 294zM340 365q0 -154 39 -199q23 -29 98 -29q33 0 87 43t100 109q-23 102 -23 258v43q-57 47 -92 47 q-125 0 -167 -52t-42 -220zM868 614q74 -25 179 -24q131 0 131 198q-2 217 -154 218q-156 -1 -156 -392z" />
<glyph unicode="&#xe7;" horiz-adv-x="991" d="M131 547q0 281 96 418q102 145 328 145q211 0 297 -104v-168h-137v118q-33 35 -160 35q-119 0 -162 -129q-33 -96 -33 -315q0 -442 191 -443q104 0 283 82l30 -104q-37 -23 -80 -39q-100 -43 -209 -53l-22 -90q219 0 219 -140q0 -162 -186 -161q-96 0 -213 41l2 90 q117 -53 190 -54q82 0 82 72q0 57 -55 72q-27 6 -166 6l45 162q-340 22 -340 559z" />
<glyph unicode="&#xe8;" horiz-adv-x="1069" d="M139 547q0 283 90 418q98 145 316 145q256 0 334 -152q57 -115 57 -466h-567q0 -164 51 -269q57 -123 166 -123q154 0 309 72l33 -98q-203 -92 -387 -92q-402 0 -402 565zM254 1442l74 129l417 -262l-55 -97zM369 600h354q0 223 -21 291q-35 111 -157 110 q-117 0 -156 -145q-20 -78 -20 -256z" />
<glyph unicode="&#xe9;" horiz-adv-x="1069" d="M139 547q0 283 90 418q98 145 316 145q256 0 334 -152q57 -115 57 -466h-567q0 -164 51 -269q57 -123 166 -123q154 0 309 72l33 -98q-203 -92 -387 -92q-402 0 -402 565zM369 600h354q0 223 -21 291q-35 111 -157 110q-117 0 -156 -145q-20 -78 -20 -256zM379 1309 l416 262l75 -129l-436 -230z" />
<glyph unicode="&#xea;" horiz-adv-x="1032" d="M139 547q0 283 90 418q98 145 316 145q256 0 334 -152q57 -115 57 -466h-567q0 -164 51 -269q57 -123 166 -123q154 0 309 72l33 -98q-203 -92 -387 -92q-402 0 -402 565zM229 1303l326 262l326 -262l-70 -84l-256 223l-254 -223zM369 600h354q0 223 -21 291 q-35 111 -157 110q-117 0 -156 -145q-20 -78 -20 -256z" />
<glyph unicode="&#xeb;" horiz-adv-x="1032" d="M139 547q0 283 90 418q98 145 316 145q256 0 334 -152q57 -115 57 -466h-567q0 -164 51 -269q57 -123 166 -123q154 0 309 72l33 -98q-203 -92 -387 -92q-402 0 -402 565zM162 1411q0 57 40 97t97 40t96 -40t39 -97t-39 -96t-96 -39t-97 39t-40 96zM369 600h354 q0 223 -21 291q-35 111 -157 110q-117 0 -156 -145q-20 -78 -20 -256zM670 1411q0 57 40 97t97 40t96 -40t39 -97t-39 -96t-96 -39t-97 39t-40 96z" />
<glyph unicode="&#xec;" horiz-adv-x="784" d="M18 1442l76 129l416 -262l-55 -97zM156 0v109h135v874h-135v109h344v-983h137v-109h-481z" />
<glyph unicode="&#xed;" horiz-adv-x="784" d="M156 0v109h135v874h-135v109h344v-983h137v-109h-481zM236 1309l415 262l74 -129l-436 -230z" />
<glyph unicode="&#xee;" horiz-adv-x="784" d="M35 1303l325 262l326 -262l-72 -84l-254 223l-254 -223zM156 0v109h135v874h-135v109h344v-983h137v-109h-481z" />
<glyph unicode="&#xef;" horiz-adv-x="784" d="M16 1411q0 57 40 97t98 40q57 0 96 -40t39 -97q0 -55 -44 -95t-102 -40q-55 0 -91 39t-36 96zM156 0v109h135v874h-135v109h344v-983h137v-109h-481zM457 1411q0 57 39 97t96 40t97 -40t40 -97q0 -55 -44 -95t-101 -40q-55 0 -91 39t-36 96z" />
<glyph unicode="&#xf1;" horiz-adv-x="1318" d="M137 983v109h328v-146q156 164 321 164q141 0 199 -66q61 -74 62 -270v-665h137v-109h-346v801q0 106 -37 141q-27 23 -105 23q-119 0 -213 -91v-765h109v-109h-428v109h108v874h-135zM283 1309q41 166 217 166q66 0 157 -63.5t154 -63.5q84 0 98 86l74 -19 q-41 -166 -219 -166q-63 0 -154.5 63.5t-154.5 63.5q-84 0 -101 -86z" />
<glyph unicode="&#xf2;" horiz-adv-x="1146" d="M127 541q0 569 446 569t447 -569q0 -567 -447 -568q-446 1 -446 568zM270 1442l74 129l416 -262l-55 -97zM354 541q0 -227 41 -332q51 -127 178 -127t179 127q41 104 41 332q0 229 -41 333q-51 127 -179 127q-127 0 -178 -127q-41 -104 -41 -333z" />
<glyph unicode="&#xf3;" horiz-adv-x="1146" d="M127 541q0 569 446 569t447 -569q0 -567 -447 -568q-446 1 -446 568zM354 541q0 -227 41 -332q51 -127 178 -127t179 127q41 104 41 332q0 229 -41 333q-51 127 -179 127q-127 0 -178 -127q-41 -104 -41 -333zM395 1309l416 262l74 -129l-434 -230z" />
<glyph unicode="&#xf4;" horiz-adv-x="1146" d="M127 541q0 569 446 569t447 -569q0 -567 -447 -568q-446 1 -446 568zM248 1303l325 262l326 -262l-72 -84l-254 223l-254 -223zM354 541q0 -227 41 -332q51 -127 178 -127t179 127q41 104 41 332q0 229 -41 333q-51 127 -179 127q-127 0 -178 -127q-41 -104 -41 -333z " />
<glyph unicode="&#xf5;" horiz-adv-x="1146" d="M127 541q0 569 446 569t447 -569q0 -567 -447 -568q-446 1 -446 568zM227 1309q41 166 219 166q63 0 154.5 -63.5t155.5 -63.5q84 0 100 86l72 -19q-41 -166 -217 -166q-66 0 -156 63.5t-154 63.5q-86 0 -100 -86zM354 541q0 -227 41 -332q51 -127 178 -127t179 127 q41 104 41 332q0 229 -41 333q-51 127 -179 127q-127 0 -178 -127q-41 -104 -41 -333z" />
<glyph unicode="&#xf6;" horiz-adv-x="1146" d="M127 541q0 569 446 569t447 -569q0 -567 -447 -568q-446 1 -446 568zM172 1411q0 57 40 97t97 40t97 -40t40 -97t-39.5 -96t-97.5 -39q-57 0 -97 39t-40 96zM354 541q0 -227 41 -332q51 -127 178 -127t179 127q41 104 41 332q0 229 -41 333q-51 127 -179 127 q-127 0 -178 -127q-41 -104 -41 -333zM700 1411q0 57 40 97t98 40q57 0 97 -40t40 -97t-40 -96t-97 -39t-97.5 39t-40.5 96z" />
<glyph unicode="&#xf9;" horiz-adv-x="1306" d="M127 983v109h346v-801q0 -106 37 -139q27 -25 104 -25q119 0 213 92v764h-108v109h319v-983h136v-109h-328v145q-156 -164 -322 -163q-141 0 -196 65q-63 74 -64 272v664h-137zM281 1442l75 129l416 -262l-55 -97z" />
<glyph unicode="&#xfa;" horiz-adv-x="1306" d="M127 983v109h346v-801q0 -106 37 -139q27 -25 104 -25q119 0 213 92v764h-108v109h319v-983h136v-109h-328v145q-156 -164 -322 -163q-141 0 -196 65q-63 74 -64 272v664h-137zM508 1309l416 262l75 -129l-436 -230z" />
<glyph unicode="&#xfb;" horiz-adv-x="1306" d="M127 983v109h346v-801q0 -106 37 -139q27 -25 104 -25q119 0 213 92v764h-108v109h319v-983h136v-109h-328v145q-156 -164 -322 -163q-141 0 -196 65q-63 74 -64 272v664h-137zM305 1303l326 262l327 -262l-71 -84l-256 223l-254 -223z" />
<glyph unicode="&#xfc;" horiz-adv-x="1306" d="M127 983v109h346v-801q0 -106 37 -139q27 -25 104 -25q119 0 213 92v764h-108v109h319v-983h136v-109h-328v145q-156 -164 -322 -163q-141 0 -196 65q-63 74 -64 272v664h-137zM225 1411q0 57 40 97t97 40t97.5 -40t40.5 -97t-40 -96t-98 -39q-57 0 -97 39t-40 96z M786 1411q0 57 39 97t97 40q57 0 97 -40t40 -97t-40 -96t-97 -39t-96.5 39t-39.5 96z" />
<glyph unicode="&#xfd;" horiz-adv-x="1103" d="M68 983v109h399v-109h-82l221 -774l223 774h-112v109h319v-109h-92l-282 -997q-63 -223 -136 -301q-61 -68 -174 -68q-59 0 -96 6v105q102 -12 158 57q45 55 45 145q0 37 -8 70l-283 983h-100zM365 1309l415 262l76 -129l-436 -230z" />
<glyph unicode="&#xff;" horiz-adv-x="1103" d="M68 983v109h399v-109h-82l221 -774l223 774h-112v109h319v-109h-92l-282 -997q-63 -223 -136 -301q-61 -68 -174 -68q-59 0 -96 6v105q102 -12 158 57q45 55 45 145q0 37 -8 70l-283 983h-100zM172 1411q0 57 40 97t97 40t97 -40t40 -97t-39.5 -96t-97.5 -39 q-57 0 -97 39t-40 96zM700 1411q0 57 40 97t98 40q57 0 97 -40t40 -97t-40 -96t-97 -39t-97.5 39t-40.5 96z" />
<glyph unicode="&#x152;" horiz-adv-x="2547" d="M1521 0v109h135v1239h-135v108h846v-272h-137v164h-332v-547h256v108h135v-327h-135v110h-256v-583h342v163h135v-272h-854zM123 729q0 403 156 586q139 160 413 160t412 -160q158 -182 158 -586q0 -406 -158 -588q-137 -160 -412 -159q-274 0 -413 159 q-156 182 -156 588zM373 729q0 -342 74.5 -490.5t244.5 -148.5t244 148.5t74 490.5t-74 489.5t-244 147.5t-244.5 -148.5t-74.5 -488.5z" />
<glyph unicode="&#x153;" horiz-adv-x="2215" d="M1286 547q0 283 90 418q98 145 316 145q256 0 334 -152q57 -115 57 -466h-567q0 -164 51 -269q57 -123 166 -123q154 0 309 72l33 -98q-203 -92 -387 -92q-402 0 -402 565zM1516 600h354q0 223 -21 291q-35 111 -157 110q-117 0 -156 -145q-20 -78 -20 -256zM127 541 q0 569 446 569t447 -569q0 -567 -447 -568q-446 1 -446 568zM354 541q0 -227 41 -332q51 -127 178 -127t179 127q41 104 41 332q0 229 -41 333q-51 127 -179 127q-127 0 -178 -127q-41 -104 -41 -333z" />
<glyph unicode="&#x178;" horiz-adv-x="1323" d="M260 1733q0 57 40 97t95 40q57 0 97.5 -40t40.5 -97t-40 -96t-98 -39q-55 0 -95 39t-40 96zM819 1733q0 57 40 97t97 40t96.5 -40t39.5 -97t-39 -96t-97 -39q-57 0 -97 39t-40 96zM102 1348v108h535v-108h-137l245 -504l246 504h-135v108h393v-108h-135l-319 -652v-587 h139v-109h-508v109h127v577l-324 662h-127z" />
<glyph unicode="&#x2c6;" horiz-adv-x="819" d="M74 1303l327 262l326 -262l-72 -84l-254 223l-256 -223z" />
<glyph unicode="&#x2dc;" horiz-adv-x="454" d="M-350 183q43 166 219 166q63 0 154 -63.5t155 -63.5q86 0 100 86l74 -19q-43 -166 -219 -166q-63 0 -154.5 63.5t-154.5 63.5q-86 0 -101 -86z" />
<glyph unicode="&#x2000;" horiz-adv-x="976" />
<glyph unicode="&#x2001;" horiz-adv-x="1955" />
<glyph unicode="&#x2002;" horiz-adv-x="976" />
<glyph unicode="&#x2003;" horiz-adv-x="1955" />
<glyph unicode="&#x2004;" horiz-adv-x="651" />
<glyph unicode="&#x2005;" horiz-adv-x="487" />
<glyph unicode="&#x2006;" horiz-adv-x="325" />
<glyph unicode="&#x2007;" horiz-adv-x="325" />
<glyph unicode="&#x2008;" horiz-adv-x="243" />
<glyph unicode="&#x2009;" horiz-adv-x="391" />
<glyph unicode="&#x200a;" horiz-adv-x="108" />
<glyph unicode="&#x2010;" horiz-adv-x="788" d="M195 473v145h401v-145h-401z" />
<glyph unicode="&#x2011;" horiz-adv-x="788" d="M195 473v145h401v-145h-401z" />
<glyph unicode="&#x2012;" horiz-adv-x="788" d="M195 473v145h401v-145h-401z" />
<glyph unicode="&#x2013;" horiz-adv-x="987" d="M172 473v145h682v-145h-682z" />
<glyph unicode="&#x2014;" horiz-adv-x="1269" d="M172 473v145h936v-145h-936z" />
<glyph unicode="&#x2018;" horiz-adv-x="681" d="M197 1264q0 215 215 325l49 -76q-150 -92 -150 -200q25 37 66 37q53 0 85 -39t32 -99q0 -55 -39 -95t-97 -40q-70 0 -115.5 48.5t-45.5 138.5z" />
<glyph unicode="&#x2019;" horiz-adv-x="681" d="M188 1411q0 57 39 97t97 40q70 0 114.5 -48t44.5 -140q0 -215 -213 -324l-49 74q150 92 150 201q-25 -37 -68 -37q-53 0 -84 39t-31 98z" />
<glyph unicode="&#x201c;" horiz-adv-x="1046" d="M160 1264q0 215 215 325l49 -76q-152 -92 -152 -200q27 37 68 37q53 0 85 -40t32 -98q0 -55 -40 -95t-98 -40q-70 0 -114.5 48.5t-44.5 138.5zM618 1264q0 215 216 325l49 -76q-152 -92 -152 -200q27 37 68 37q53 0 84.5 -40t31.5 -98q0 -55 -39.5 -95t-97.5 -40 q-70 0 -115 48.5t-45 138.5z" />
<glyph unicode="&#x201d;" horiz-adv-x="1046" d="M147 1411q0 57 40 97t98 40q70 0 114.5 -48t44.5 -140q0 -215 -215 -324l-49 74q152 92 152 201q-27 -37 -68 -37q-53 0 -85 40t-32 97zM606 1411q0 57 39 97t96 40q70 0 115 -48t45 -140q0 -215 -213 -324l-49 74q150 92 149 201q-25 -37 -67 -37q-53 0 -84 39t-31 98z " />
<glyph unicode="&#x2022;" horiz-adv-x="1040" d="M291 682q0 94 66.5 160.5t160.5 66.5q96 0 161.5 -65.5t65.5 -161.5q0 -94 -66.5 -160.5t-160.5 -66.5t-160.5 66.5t-66.5 160.5z" />
<glyph unicode="&#x2026;" horiz-adv-x="2027" d="M1563 119q0 57 40 96t97 39t96 -39t39 -96t-38.5 -97t-96.5 -40q-57 0 -97 40t-40 97zM887 119q0 57 40 96t97 39t96 -39t39 -96t-38.5 -97t-96.5 -40q-57 0 -97 40t-40 97zM211 119q0 57 40 96t97 39t96 -39t39 -96t-38.5 -97t-96.5 -40q-57 0 -97 40t-40 97z" />
<glyph unicode="&#x202f;" horiz-adv-x="391" />
<glyph unicode="&#x2039;" horiz-adv-x="954" d="M266 295l226 254l-226 256l86 72l262 -328l-262 -326z" />
<glyph unicode="&#x205f;" horiz-adv-x="487" />
<glyph unicode="&#x2122;" horiz-adv-x="3125" d="M1425 -2v108h135v1242h-135v108h443l340 -1165l333 1165h447v-108h-135v-1239h135v-109h-512v109h135v1167l-371 -1276h-200l-369 1284v-1178h135v-108h-381zM63 1184v272h1180v-272h-137v164h-332v-1239h205v-109h-651v109h204v1239l-331 -5v-159h-138z" />
<glyph unicode="&#xe000;" horiz-adv-x="1090" d="M0 1090h1090v-1090h-1090v1090z" />
<glyph unicode="&#xfb01;" horiz-adv-x="1685" d="M1057 0v109h135v874h-135v109h344v-983h137v-109h-481zM1159 1411q0 57 40 97t97 40t97 -40t40 -97t-39.5 -96t-97.5 -39q-57 0 -97 39t-40 96zM137 0v109h135v866h-135v117h135q0 164 47 241q82 141 322 142q47 0 133 -15v-223h-137v123q-25 6 -53 6q-74 0 -92 -82 q-8 -37 -9 -192h199v-117h-199v-866h199v-109h-545z" />
<glyph unicode="&#xfb02;" horiz-adv-x="1695" d="M1057 0v109h135v1239h-135v108h344v-1347h137v-109h-481zM137 0v109h135v866h-135v117h135q0 164 47 241q82 141 322 142q47 0 133 -15v-223h-137v123q-25 6 -53 6q-74 0 -92 -82q-8 -37 -9 -192h199v-117h-199v-866h199v-109h-545z" />
<glyph unicode="&#xfb03;" horiz-adv-x="2586" d="M1958 0v109h135v874h-135v109h344v-983h137v-109h-481zM2060 1411q0 57 40 97t97 40t97 -40t40 -97t-39.5 -96t-97.5 -39q-57 0 -97 39t-40 96zM1038 0v109h135v866h-135v117h135q0 164 47 241q82 141 322 142q47 0 133 -15v-223h-137v123q-25 6 -53 6q-74 0 -92 -82 q-8 -37 -9 -192h199v-117h-199v-866h199v-109h-545zM137 0v109h135v866h-135v117h135q0 164 47 241q82 141 322 142q47 0 133 -15v-223h-137v123q-25 6 -53 6q-74 0 -92 -82q-8 -37 -9 -192h199v-117h-199v-866h199v-109h-545z" />
<glyph unicode="&#xfb04;" horiz-adv-x="2596" d="M1958 0v109h135v1239h-135v108h344v-1347h137v-109h-481zM1038 0v109h135v866h-135v117h135q0 164 47 241q82 141 322 142q47 0 133 -15v-223h-137v123q-25 6 -53 6q-74 0 -92 -82q-8 -37 -9 -192h199v-117h-199v-866h199v-109h-545zM137 0v109h135v866h-135v117h135 q0 164 47 241q82 141 322 142q47 0 133 -15v-223h-137v123q-25 6 -53 6q-74 0 -92 -82q-8 -37 -9 -192h199v-117h-199v-866h199v-109h-545z" />
</font>
</defs>
</svg>
